<svg width="669" height="128" viewBox="0 0 669 128" fill="none" xmlns="http://www.w3.org/2000/svg">
<g clip-path="url(#clip0_1_2)">
<path d="M26.9605 112V22.4H64.9765C70.2672 22.4 75.0458 23.68 79.3125 26.24C83.6645 28.7147 87.0778 32.128 89.5525 36.48C92.1125 40.832 93.3925 45.7387 93.3925 51.2C93.3925 56.7467 92.1125 61.7387 89.5525 66.176C87.0778 70.6133 83.6645 74.1547 79.3125 76.8C75.0458 79.36 70.2672 80.64 64.9765 80.64H46.1605V112H26.9605ZM45.9045 63.36H62.8005C64.8485 63.36 66.6832 62.848 68.3045 61.824C69.9258 60.7147 71.2058 59.264 72.1445 57.472C73.1685 55.68 73.6805 53.632 73.6805 51.328C73.6805 49.024 73.1685 47.0187 72.1445 45.312C71.2058 43.52 69.9258 42.1547 68.3045 41.216C66.6832 40.192 64.8485 39.68 62.8005 39.68H45.9045V63.36ZM108.026 112V44.288H125.562L126.202 66.048L123.13 61.568C124.154 58.0693 125.818 54.912 128.122 52.096C130.426 49.1947 133.114 46.9333 136.186 45.312C139.343 43.6907 142.628 42.88 146.042 42.88C147.492 42.88 148.9 43.008 150.266 43.264C151.631 43.52 152.783 43.8187 153.722 44.16L148.858 64.128C147.834 63.616 146.596 63.1893 145.146 62.848C143.695 62.4213 142.202 62.208 140.666 62.208C138.618 62.208 136.698 62.592 134.906 63.36C133.199 64.0427 131.706 65.0667 130.426 66.432C129.146 67.712 128.122 69.248 127.354 71.04C126.671 72.832 126.33 74.7947 126.33 76.928V112H108.026ZM186.62 113.28C180.988 113.28 175.91 111.744 171.388 108.672C166.865 105.6 163.281 101.419 160.635 96.128C157.99 90.8373 156.668 84.7787 156.668 77.952C156.668 71.1253 157.99 65.1093 160.635 59.904C163.366 54.6133 167.036 50.4747 171.644 47.488C176.252 44.416 181.5 42.88 187.388 42.88C190.716 42.88 193.745 43.392 196.476 44.416C199.292 45.3547 201.724 46.6773 203.772 48.384C205.905 50.0907 207.697 52.0533 209.148 54.272C210.598 56.4907 211.622 58.88 212.22 61.44L208.38 60.8V44.288H226.428V112H208.124V95.744L212.22 95.36C211.537 97.7493 210.428 100.011 208.892 102.144C207.356 104.277 205.436 106.197 203.132 107.904C200.913 109.525 198.396 110.848 195.58 111.872C192.764 112.811 189.777 113.28 186.62 113.28ZM191.612 97.536C195.025 97.536 198.012 96.7253 200.572 95.104C203.132 93.4827 205.094 91.2213 206.46 88.32C207.91 85.3333 208.636 81.8773 208.636 77.952C208.636 74.112 207.91 70.7413 206.46 67.84C205.094 64.9387 203.132 62.6773 200.572 61.056C198.012 59.3493 195.025 58.496 191.612 58.496C188.284 58.496 185.34 59.3493 182.78 61.056C180.305 62.6773 178.342 64.9387 176.892 67.84C175.441 70.7413 174.716 74.112 174.716 77.952C174.716 81.8773 175.441 85.3333 176.892 88.32C178.342 91.2213 180.305 93.4827 182.78 95.104C185.34 96.7253 188.284 97.536 191.612 97.536ZM252.623 141.44L267.471 106.624L267.727 117.12L234.703 44.288H255.311L271.823 83.328C272.505 84.7787 273.145 86.4853 273.743 88.448C274.425 90.3253 274.98 92.16 275.407 93.952L272.335 95.232C272.847 93.7813 273.444 92.1173 274.127 90.24C274.809 88.3627 275.492 86.3573 276.175 84.224L290.383 44.288H311.119L282.703 112L271.055 141.44H252.623ZM321.029 112V17.28H339.205V112H321.029ZM381.745 113.28C376.113 113.28 371.035 111.744 366.513 108.672C361.99 105.6 358.406 101.419 355.76 96.128C353.115 90.8373 351.793 84.7787 351.793 77.952C351.793 71.1253 353.115 65.1093 355.76 59.904C358.491 54.6133 362.161 50.4747 366.769 47.488C371.377 44.416 376.625 42.88 382.513 42.88C385.841 42.88 388.87 43.392 391.601 44.416C394.417 45.3547 396.849 46.6773 398.897 48.384C401.03 50.0907 402.822 52.0533 404.273 54.272C405.723 56.4907 406.747 58.88 407.345 61.44L403.505 60.8V44.288H421.553V112H403.249V95.744L407.345 95.36C406.662 97.7493 405.553 100.011 404.017 102.144C402.481 104.277 400.561 106.197 398.257 107.904C396.038 109.525 393.521 110.848 390.705 111.872C387.889 112.811 384.902 113.28 381.745 113.28ZM386.737 97.536C390.15 97.536 393.137 96.7253 395.697 95.104C398.257 93.4827 400.219 91.2213 401.585 88.32C403.035 85.3333 403.761 81.8773 403.761 77.952C403.761 74.112 403.035 70.7413 401.585 67.84C400.219 64.9387 398.257 62.6773 395.697 61.056C393.137 59.3493 390.15 58.496 386.737 58.496C383.409 58.496 380.465 59.3493 377.905 61.056C375.43 62.6773 373.467 64.9387 372.017 67.84C370.566 70.7413 369.841 74.112 369.841 77.952C369.841 81.8773 370.566 85.3333 372.017 88.32C373.467 91.2213 375.43 93.4827 377.905 95.104C380.465 96.7253 383.409 97.536 386.737 97.536ZM439.776 112V44.288H457.184L457.696 58.112L454.112 59.648C455.05 56.576 456.714 53.8027 459.104 51.328C461.578 48.768 464.522 46.72 467.936 45.184C471.349 43.648 474.933 42.88 478.688 42.88C483.808 42.88 488.074 43.904 491.488 45.952C494.986 48 497.589 51.1147 499.296 55.296C501.088 59.392 501.984 64.4693 501.984 70.528V112H483.808V71.936C483.808 68.864 483.381 66.304 482.528 64.256C481.674 62.208 480.352 60.7147 478.56 59.776C476.853 58.752 474.72 58.3253 472.16 58.496C470.112 58.496 468.192 58.8373 466.4 59.52C464.693 60.1173 463.2 61.0133 461.92 62.208C460.725 63.4027 459.744 64.768 458.976 66.304C458.293 67.84 457.952 69.504 457.952 71.296V112H448.992C447.029 112 445.28 112 443.744 112C442.208 112 440.885 112 439.776 112ZM548.841 113.28C542.355 113.28 536.553 111.744 531.433 108.672C526.313 105.6 522.259 101.419 519.273 96.128C516.371 90.8373 514.921 84.8213 514.921 78.08C514.921 71.424 516.371 65.4507 519.273 60.16C522.259 54.784 526.313 50.56 531.433 47.488C536.553 44.416 542.355 42.88 548.841 42.88C554.899 42.88 560.446 43.9893 565.481 46.208C570.515 48.4267 574.441 51.4987 577.257 55.424L567.273 67.456C566.078 65.8347 564.585 64.384 562.793 63.104C561.001 61.7387 559.038 60.672 556.905 59.904C554.857 59.136 552.723 58.752 550.505 58.752C547.006 58.752 543.891 59.6053 541.161 61.312C538.515 62.9333 536.425 65.1947 534.889 68.096C533.353 70.9973 532.585 74.3253 532.585 78.08C532.585 81.7493 533.353 85.0347 534.889 87.936C536.51 90.752 538.686 93.056 541.417 94.848C544.147 96.5547 547.219 97.408 550.633 97.408C552.851 97.408 554.942 97.1093 556.905 96.512C558.867 95.8293 560.702 94.848 562.409 93.568C564.201 92.288 565.822 90.752 567.273 88.96L577.129 100.992C574.227 104.661 570.217 107.648 565.097 109.952C559.977 112.171 554.558 113.28 548.841 113.28ZM620.904 113.28C613.565 113.28 607.165 111.787 601.704 108.8C596.242 105.813 591.976 101.717 588.904 96.512C585.832 91.3067 584.296 85.3333 584.296 78.592C584.296 73.3867 585.149 68.608 586.856 64.256C588.562 59.904 590.952 56.1493 594.024 52.992C597.096 49.7493 600.722 47.2747 604.904 45.568C609.17 43.776 613.778 42.88 618.728 42.88C623.336 42.88 627.602 43.7333 631.528 45.44C635.453 47.0613 638.824 49.408 641.64 52.48C644.541 55.4667 646.76 59.008 648.296 63.104C649.832 67.2 650.514 71.68 650.344 76.544L650.215 82.176H595.816L592.872 71.04H635.24L633.192 73.344V70.528C633.021 68.224 632.253 66.1333 630.888 64.256C629.608 62.3787 627.944 60.928 625.896 59.904C623.848 58.88 621.544 58.368 618.984 58.368C615.229 58.368 612.029 59.0933 609.384 60.544C606.824 61.9947 604.861 64.128 603.496 66.944C602.13 69.76 601.448 73.1733 601.448 77.184C601.448 81.28 602.301 84.8213 604.008 87.808C605.8 90.7947 608.274 93.1413 611.432 94.848C614.674 96.4693 618.472 97.28 622.824 97.28C625.81 97.28 628.541 96.8107 631.016 95.872C633.49 94.9333 636.136 93.312 638.952 91.008L647.656 103.168C645.181 105.387 642.45 107.264 639.464 108.8C636.477 110.251 633.405 111.36 630.248 112.128C627.09 112.896 623.976 113.28 620.904 113.28Z" fill="black"/>
</g>
<defs>
<clipPath id="clip0_1_2">
<rect width="669" height="128" fill="white"/>
</clipPath>
</defs>
</svg>
